HIERARCHY
ROOT hip
{
  OFFSET 0.0 0.0 0.0
  CHANNELS 6 Xposition Yposition Zposition Zrotation Yrotation Xrotation
  JOINT abdomen
  {
    OFFSET 0.0 20.6881 -0.73152
    CHANNELS 3 Zrotation Xrotation Yrotation
    JOINT chest
    {
      OFFSET 0.0 11.7043 -0.48768
      CHANNELS 3 Zrotation Xrotation Yrotation
      JOINT neck
      {
        OFFSET 0.0 22.1894 -2.19456
        CHANNELS 3 Zrotation Xrotation Yrotation
        JOINT head
        {
          OFFSET -0.24384 7.07133 1.2192
          CHANNELS 3 Zrotation Xrotation Yrotation
          JOINT leftEye
          {
            OFFSET 4.14528 8.04674 8.04672
            CHANNELS 3 Zrotation Xrotation Yrotation
            End Site
            {
              OFFSET 1.0 0.0 0.0
            }
          }
          JOINT rightEye
          {
            OFFSET -3.6576 8.04674 8.04672
            CHANNELS 3 Zrotation Xrotation Yrotation
            End Site
            {
              OFFSET 1.0 0.0 0.0
            }
          }
        }
      }
      JOINT rCollar
      {
        OFFSET -2.68224 19.2634 -4.8768
        CHANNELS 3 Zrotation Xrotation Yrotation
        JOINT rShldr
        {
          OFFSET -8.77824 -1.95073 1.46304
          CHANNELS 3 Zrotation Xrotation Yrotation
          JOINT rForeArm
          {
            OFFSET -28.1742 -1.7115 0.48768
            CHANNELS 3 Zrotation Xrotation Yrotation
            JOINT rHand
            {
              OFFSET -22.5879 0.773209 7.07136
              CHANNELS 3 Zrotation Xrotation Yrotation
              JOINT rThumb1
              {
                OFFSET -1.2192 -0.487915 3.41376
                CHANNELS 3 Zrotation Xrotation Yrotation
                JOINT rThumb2
                {
                  OFFSET -3.37035 -0.52449 3.41376
                  CHANNELS 3 Zrotation Xrotation Yrotation
                  End Site
                  {
                    OFFSET -1.78271 -1.18214 1.43049
                  }
                }
              }
              JOINT rIndex1
              {
                OFFSET -7.75947 0.938293 5.60832
                CHANNELS 3 Zrotation Xrotation Yrotation
                JOINT rIndex2
                {
                  OFFSET -2.54057 -0.884171 1.56538
                  CHANNELS 3 Zrotation Xrotation Yrotation
                  End Site
                  {
                    OFFSET -1.62519 -0.234802 1.16502
                  }
                }
              }
              JOINT rMid1
              {
                OFFSET -8.24714 1.18213 3.41376
                CHANNELS 3 Zrotation Xrotation Yrotation
                JOINT rMid2
                {
                  OFFSET -3.10165 -0.590103 1.0647
                  CHANNELS 3 Zrotation Xrotation Yrotation
                  End Site
                  {
                    OFFSET -2.48547 -0.328903 0.83742
                  }
                }
              }
              JOINT rRing1
              {
                OFFSET -8.82822 0.546677 1.51678
                CHANNELS 3 Zrotation Xrotation Yrotation
                JOINT rRing2
                {
                  OFFSET -2.60934 -0.819778 -0.0198488
                  CHANNELS 3 Zrotation Xrotation Yrotation
                  End Site
                  {
                    OFFSET -2.33842 -0.294052 0.168128
                  }
                }
              }
              JOINT rPinky1
              {
                OFFSET -8.27202 -0.0477905 -0.4584
                CHANNELS 3 Zrotation Xrotation Yrotation
                JOINT rPinky2
                {
                  OFFSET -1.82734 -0.647385 -0.700984
                  CHANNELS 3 Zrotation Xrotation Yrotation
                  End Site
                  {
                    OFFSET -1.69225 -0.51767 -0.607171
                  }
                }
              }
            }
          }
        }
      }
      JOINT lCollar
      {
        OFFSET 2.68224 19.2634 -4.8768
        CHANNELS 3 Zrotation Xrotation Yrotation
        JOINT lShldr
        {
          OFFSET 8.77824 -1.95073 1.46304
          CHANNELS 3 Zrotation Xrotation Yrotation
          JOINT lForeArm
          {
            OFFSET 28.1742 -1.7115 0.48768
            CHANNELS 3 Zrotation Xrotation Yrotation
            JOINT lHand
            {
              OFFSET 22.5879 0.773209 7.07136
              CHANNELS 3 Zrotation Xrotation Yrotation
              JOINT lThumb1
              {
                OFFSET 1.2192 -0.487915 3.41376
                CHANNELS 3 Zrotation Xrotation Yrotation
                JOINT lThumb2
                {
                  OFFSET 3.37035 -0.52449 3.41376
                  CHANNELS 3 Zrotation Xrotation Yrotation
                  End Site
                  {
                    OFFSET 1.78271 -1.18214 1.43049
                  }
                }
              }
              JOINT lIndex1
              {
                OFFSET 7.75947 0.938293 5.60832
                CHANNELS 3 Zrotation Xrotation Yrotation
                JOINT lIndex2
                {
                  OFFSET 2.54057 -0.884171 1.56538
                  CHANNELS 3 Zrotation Xrotation Yrotation
                  End Site
                  {
                    OFFSET 1.62519 -0.234802 1.16502
                  }
                }
              }
              JOINT lMid1
              {
                OFFSET 8.24714 1.18213 3.41376
                CHANNELS 3 Zrotation Xrotation Yrotation
                JOINT lMid2
                {
                  OFFSET 3.10165 -0.590103 1.0647
                  CHANNELS 3 Zrotation Xrotation Yrotation
                  End Site
                  {
                    OFFSET 2.48547 -0.328903 0.83742
                  }
                }
              }
              JOINT lRing1
              {
                OFFSET 8.82822 0.546677 1.51678
                CHANNELS 3 Zrotation Xrotation Yrotation
                JOINT lRing2
                {
                  OFFSET 2.60934 -0.819778 -0.0198488
                  CHANNELS 3 Zrotation Xrotation Yrotation
                  End Site
                  {
                    OFFSET 2.33842 -0.294052 0.168128
                  }
                }
              }
              JOINT lPinky1
              {
                OFFSET 8.27202 -0.0477905 -0.4584
                CHANNELS 3 Zrotation Xrotation Yrotation
                JOINT lPinky2
                {
                  OFFSET 1.82734 -0.647385 -0.700984
                  CHANNELS 3 Zrotation Xrotation Yrotation
                  End Site
                  {
                    OFFSET 1.69225 -0.51767 -0.607171
                  }
                }
              }
            }
          }
        }
      }
    }
  }
  JOINT rButtock
  {
    OFFSET -8.77824 4.35084 1.2192
    CHANNELS 3 Zrotation Xrotation Yrotation
    JOINT rThigh
    {
      OFFSET 0.0 -1.70687 -2.19456
      CHANNELS 3 Zrotation Xrotation Yrotation
      JOINT rShin
      {
        OFFSET 0.0 -36.8199 0.73152
        CHANNELS 3 Zrotation Xrotation Yrotation
        JOINT rFoot
        {
          OFFSET 0.73152 -45.1104 -5.12064
          CHANNELS 3 Zrotation Xrotation Yrotation
          End Site
          {
            OFFSET -1.1221 -3.69964 12.103
          }
        }
      }
    }
  }
  JOINT lButtock
  {
    OFFSET 8.77824 4.35084 1.2192
    CHANNELS 3 Zrotation Xrotation Yrotation
    JOINT lThigh
    {
      OFFSET 0.0 -1.70687 -2.19456
      CHANNELS 3 Zrotation Xrotation Yrotation
      JOINT lShin
      {
        OFFSET 0.0 -36.8199 0.73152
        CHANNELS 3 Zrotation Xrotation Yrotation
        JOINT lFoot
        {
          OFFSET -0.73152 -45.1104 -5.12064
          CHANNELS 3 Zrotation Xrotation Yrotation
          End Site
          {
            OFFSET 1.1221 -3.69964 12.103
          }
        }
      }
    }
  }
}
MOTION
Frames: 6
Frame Time: 0.00833333
0.0 81.9038 0.0 4.2322 5.6247 6.781 -3.18983 3.04994 -5.55458 5.93594 -5.12633 -1.36766 9.65805 -7.89579 3.59977 -12.1199 -13.0857 1.80702 -0.0 0.0 0.0 -0.0 0.0 0.0 8.78275e-14 7.15644e-14 6.21202e-15 78.6223 15.4448 -3.16795 -10.9028 -4.7083 19.5057 -0.157938 -11.2553 -1.60271 -3.03607e-09 2.89906e-09 -8.74058e-10 -5.23919e-09 5.0042e-09 -1.53348e-09 -3.03606e-09 2.89906e-09 -8.7408e-10 7.73091 5.47488 0.417314 -3.03606e-09 2.89905e-09 -8.74064e-10 2.90554 0.965183 0.102902 -3.03606e-09 2.89905e-09 -8.7406e-10 10.2786 0.731801 0.0259123 -3.03607e-09 2.89906e-09 -8.74058e-10 2.22167 -0.733487 -0.20892 1.89645e-14 -2.22709e-14 5.71009e-14 -37.8801 -20.6408 7.65582 17.6987 -10.3663 -33.3477 0.0395591 -5.66762 0.799166 -2.97665e-09 -1.57368e-09 -5.92146e-10 -5.13798e-09 -2.71558e-09 -1.03286e-09 -2.97666e-09 -1.57368e-09 -5.92133e-10 -7.73091 5.47488 -0.417314 -2.97666e-09 -1.57368e-09 -5.92149e-10 -2.90554 0.965183 -0.102902 -2.97666e-09 -1.57368e-09 -5.9214e-10 -10.2786 0.731801 -0.0259123 -2.97665e-09 -1.57368e-09 -5.9214e-10 -2.22167 -0.733487 0.20892 -2.03217e-16 0.0 -3.88251e-19 -9.78007 -41.8167 -7.3037 -0.499357 46.6633 0.893217 -2.28637 0.63477 -15.3958 2.03217e-16 0.0 3.88251e-19 -0.835035 11.8212 -4.20606 -0.0138314 18.3068 -0.571122 0.126222 8.02308 4.22235
-0.08591000000000015 82.7802 0.991100000000003 4.0955 6.0995 6.8773 -2.77363 2.68362 -5.78073 5.83922 -5.11535 -1.43205 9.71553 -8.02938 3.59416 -12.1393 -13.0795 1.74829 -0.0 0.0 0.0 -0.0 0.0 0.0 1.07382e-13 7.90165e-14 2.39745e-14 78.5772 15.3502 -3.14099 -10.859 -4.67992 19.4225 -0.155668 -11.1753 -1.59101 -2.976e-09 3.43842e-09 -1.30167e-09 -5.13432e-09 5.93591e-09 -2.27202e-09 -2.976e-09 3.43842e-09 -1.30169e-09 7.73091 5.47488 0.417314 -2.976e-09 3.43842e-09 -1.30168e-09 2.90554 0.965183 0.102902 -2.976e-09 3.43842e-09 -1.30168e-09 10.2786 0.731801 0.0259123 -2.97601e-09 3.43842e-09 -1.30167e-09 2.22167 -0.733487 -0.20892 1.63588e-14 -2.55741e-14 6.78667e-14 -37.6367 -20.66 7.67728 17.7253 -10.3943 -33.4068 0.030534 -5.03605 0.709516 -3.30709e-09 -1.36932e-09 1.17778e-10 -5.71005e-09 -2.36355e-09 1.9535e-10 -3.3071e-09 -1.36932e-09 1.17792e-10 -7.73091 5.47488 -0.417314 -3.3071e-09 -1.36933e-09 1.17779e-10 -2.90554 0.965183 -0.102902 -3.3071e-09 -1.36933e-09 1.17786e-10 -10.2786 0.731801 -0.0259123 -3.30709e-09 -1.36932e-09 1.17785e-10 -2.22167 -0.733487 0.20892 -2.03217e-16 0.0 -3.88251e-19 -9.47803 -40.0873 -7.41935 -0.454766 44.9632 0.819956 -2.01753 1.27832 -15.0272 2.03217e-16 0.0 3.88251e-19 -0.27567 10.7999 -4.48779 -0.0015148 19.1743 -0.538879 0.11151 11.2797 2.66682
-0.16554000000000002 83.6954 1.9607000000000028 3.9474 6.6075 6.9481 -2.34855 2.32679 -6.01784 5.73427 -5.11593 -1.49907 9.7374 -8.17945 3.55233 -12.1387 -12.9889 1.63955 -0.0 0.0 0.0 -0.0 0.0 0.0 1.33981e-13 8.11833e-14 4.39749e-14 78.5411 15.2016 -3.11546 -10.8082 -4.64705 19.3263 -0.149313 -10.9492 -1.55801 -2.44373e-09 3.72319e-09 -1.80505e-09 -4.21398e-09 6.42789e-09 -3.138e-09 -2.44372e-09 3.72319e-09 -1.80506e-09 7.73091 5.47488 0.417314 -2.44373e-09 3.72319e-09 -1.80506e-09 2.90554 0.965183 0.102902 -2.44372e-09 3.72319e-09 -1.80505e-09 10.2786 0.731801 0.0259123 -2.44373e-09 3.72319e-09 -1.80504e-09 2.22167 -0.733487 -0.20892 1.51612e-14 -3.71757e-14 8.52196e-14 -37.3768 -20.6734 7.70234 17.7547 -10.4253 -33.4723 0.0219217 -4.23367 0.595974 -3.33622e-09 -7.97898e-10 1.16696e-09 -5.76243e-09 -1.37778e-09 2.01168e-09 -3.33623e-09 -7.97902e-10 1.16697e-09 -7.73091 5.47488 -0.417314 -3.33623e-09 -7.97907e-10 1.16696e-09 -2.90554 0.965183 -0.102902 -3.33623e-09 -7.97904e-10 1.16696e-09 -10.2786 0.731801 -0.0259123 -3.33622e-09 -7.97902e-10 1.16696e-09 -2.22167 -0.733487 0.20892 -2.03217e-16 0.0 -3.88251e-19 -9.15785 -38.2808 -7.44997 -0.41263 43.1138 0.741428 -1.68744 2.16469 -14.6297 2.03217e-16 0.0 3.88251e-19 0.270283 9.6514 -4.86727 0.013098 20.0482 -0.507524 0.253601 14.6677 1.11946
-0.23831000000000024 84.631 2.9091000000000093 3.7879 7.1228 6.9925 -1.92642 1.99766 -6.22378 5.62071 -5.11545 -1.55757 9.73731 -8.34281 3.49109 -12.1428 -12.8596 1.50233 -0.0 0.0 0.0 -0.0 0.0 0.0 1.53231e-13 8.49032e-14 6.18663e-14 78.4753 15.0637 -3.07802 -10.7465 -4.6073 19.2092 -0.141261 -10.6535 -1.51492 -1.74388e-09 3.72803e-09 -2.18423e-09 -3.00467e-09 6.43646e-09 -3.78807e-09 -1.74387e-09 3.72804e-09 -2.18424e-09 7.73091 5.47488 0.417314 -1.74388e-09 3.72804e-09 -2.18424e-09 2.90554 0.965183 0.102902 -1.74387e-09 3.72804e-09 -2.18423e-09 10.2786 0.731801 0.0259123 -1.74389e-09 3.72804e-09 -2.18422e-09 2.22167 -0.733487 -0.20892 1.07194e-14 -4.52988e-14 9.68621e-14 -37.0981 -20.686 7.73354 17.7871 -10.4596 -33.5445 0.0140307 -3.30937 0.465549 -3.12099e-09 -1.53985e-10 2.11499e-09 -5.39266e-09 -2.66728e-10 3.65345e-09 -3.121e-09 -1.53989e-10 2.11501e-09 -7.73091 5.47488 -0.417314 -3.121e-09 -1.53994e-10 2.115e-09 -2.90554 0.965183 -0.102902 -3.12101e-09 -1.53993e-10 2.115e-09 -10.2786 0.731801 -0.0259123 -3.12099e-09 -1.53992e-10 2.115e-09 -2.22167 -0.733487 0.20892 -2.03217e-16 0.0 -3.88251e-19 -8.82678 -36.5329 -7.40559 -0.376194 41.2724 0.664138 -1.30498 3.3088 -14.2183 2.03217e-16 0.0 3.88251e-19 0.76148 8.44264 -5.24105 0.0286653 20.9504 -0.480093 0.51253 17.6308 -0.209535
-0.3145300000000004 85.5739 3.832100000000011 3.598 7.6013 7.0172 -1.51791 1.71433 -6.35644 5.4982 -5.10128 -1.59637 9.72913 -8.51627 3.42723 -12.1768 -12.7375 1.3581 -0.0 0.0 0.0 -0.0 0.0 0.0 1.50742e-13 9.70147e-14 7.33018e-14 78.3411 15.0012 -3.01527 -10.6695 -4.5583 19.0631 -0.133591 -10.3645 -1.4729 -1.1811e-09 3.42766e-09 -2.23925e-09 -2.03288e-09 5.91793e-09 -3.87891e-09 -1.1811e-09 3.42766e-09 -2.23926e-09 7.73091 5.47488 0.417314 -1.1811e-09 3.42766e-09 -2.23926e-09 2.90554 0.965183 0.102902 -1.1811e-09 3.42766e-09 -2.23925e-09 10.2786 0.731801 0.0259123 -1.18111e-09 3.42766e-09 -2.23924e-09 2.22167 -0.733487 -0.20892 -1.6186e-15 -3.81669e-14 9.04967e-14 -36.7984 -20.7026 7.77342 17.8228 -10.4974 -33.6239 0.00656068 -2.31207 0.325118 -2.71835e-09 2.67838e-10 2.5215e-09 -4.69831e-09 4.61152e-10 4.35801e-09 -2.71836e-09 2.67833e-10 2.52152e-09 -7.73091 5.47488 -0.417314 -2.71835e-09 2.67829e-10 2.52151e-09 -2.90554 0.965183 -0.102902 -2.71837e-09 2.67829e-10 2.52151e-09 -10.2786 0.731801 -0.0259123 -2.71835e-09 2.67829e-10 2.5215e-09 -2.22167 -0.733487 0.20892 -2.03217e-16 0.0 -3.88251e-19 -8.49016 -34.9789 -7.29247 -0.34656 39.5965 0.59288 -0.878786 4.72542 -13.8092 2.03217e-16 0.0 3.88251e-19 1.16671 7.24018 -5.50704 0.0440157 21.9025 -0.459697 0.753484 19.62 -1.07913
-0.38591 86.5111 4.730800000000002 3.4165 8.0078 7.0352 -1.09535 1.4779 -6.41359 5.36235 -5.0731 -1.61491 9.74137 -8.71616 3.3722 -12.2892 -12.6112 1.21042 -0.0 0.0 0.0 -0.0 0.0 0.0 1.1092e-13 1.26764e-13 7.52579e-14 78.0687 15.1095 -2.90309 -10.5693 -4.49492 18.8729 -0.12588 -10.0706 -1.43021 -8.12299e-10 2.56558e-09 -1.76502e-09 -1.39733e-09 4.42921e-09 -3.05639e-09 -8.12293e-10 2.56558e-09 -1.76502e-09 7.73091 5.47488 0.417314 -8.12301e-10 2.56558e-09 -1.76502e-09 2.90554 0.965183 0.102902 -8.12296e-10 2.56558e-09 -1.76502e-09 10.2786 0.731801 0.0259123 -8.12306e-10 2.56558e-09 -1.76501e-09 2.22167 -0.733487 -0.20892 -2.91381e-14 -3.08386e-15 5.24147e-14 -36.4757 -20.7266 7.81693 17.8603 -10.5373 -33.7077 -0.00172036 -1.07687 0.151412 -1.96648e-09 3.59619e-10 2.0152e-09 -3.39956e-09 6.19598e-10 3.48296e-09 -1.96649e-09 3.59615e-10 2.01522e-09 -7.73091 5.47488 -0.417314 -1.96648e-09 3.59612e-10 2.01521e-09 -2.90554 0.965183 -0.102902 -1.96649e-09 3.59612e-10 2.01521e-09 -10.2786 0.731801 -0.0259123 -1.96648e-09 3.59613e-10 2.0152e-09 -2.22167 -0.733487 0.20892 -2.03217e-16 0.0 -3.88251e-19 -8.11255 -33.6489 -7.06641 -0.321846 38.1002 0.525674 -0.401412 6.47667 -13.3792 2.03217e-16 0.0 3.88251e-19 1.50879 6.02994 -5.64979 0.0606729 22.976 -0.44877 0.81391 20.3136 -1.26668
